<?xml version="1.0" standalone="no"?>
<!DOCTYPE svg PUBLIC "-//W3C//DTD SVG 20010904//EN"
 "http://www.w3.org/TR/2001/REC-SVG-20010904/DTD/svg10.dtd">
<svg version="1.0" xmlns="http://www.w3.org/2000/svg"
 width="225.000000pt" height="225.000000pt" viewBox="0 0 225.000000 225.000000"
 preserveAspectRatio="xMidYMid meet">

<g transform="translate(0.000000,225.000000) scale(0.100000,-0.100000)"
fill="#000000" stroke="none">
<path d="M0 1125 l0 -1125 1125 0 1125 0 0 1125 0 1125 -1125 0 -1125 0 0
-1125z m1952 951 c6 4 8 2 5 -3 -4 -6 2 -18 13 -28 11 -10 20 -14 20 -10 0 5
13 -4 30 -20 23 -22 29 -36 27 -62 -1 -18 -3 -33 -5 -33 -2 0 -30 25 -63 57
-37 35 -59 64 -59 78 0 24 13 42 18 26 2 -6 9 -8 14 -5z m-1629 -49 c-9 -16
-111 -123 -163 -172 -30 -28 -30 -26 11 33 66 95 99 132 125 138 13 3 24 11
24 17 0 6 3 8 6 4 3 -3 2 -12 -3 -20z m-74 -14 c-31 -41 -69 -83 -69 -78 0 12
23 50 43 73 24 26 46 30 26 5z m1613 -157 c17 -28 38 -62 47 -76 8 -14 14 -31
13 -37 -2 -7 1 -13 6 -13 6 0 12 -7 16 -15 12 -31 -14 -12 -103 75 -58 58 -91
98 -91 112 0 20 1 20 18 5 29 -26 35 -20 13 12 -11 15 -18 31 -15 34 10 10 63
-44 96 -97z m-1366 28 c-5 -27 -29 -60 -95 -134 l-41 -45 29 65 c28 62 47 100
64 128 5 6 17 12 28 12 15 0 18 -5 15 -26z m188 -101 c-16 -31 -45 -78 -64
-104 -19 -26 -41 -56 -48 -66 -26 -37 -2 30 44 123 27 56 54 95 67 101 12 6
24 9 26 7 2 -2 -9 -29 -25 -61z m945 -24 c18 -32 34 -67 36 -76 2 -10 15 -47
29 -82 28 -69 29 -87 2 -47 -67 104 -126 210 -118 215 7 4 5 20 -3 44 -13 37
-12 38 5 22 10 -9 32 -43 49 -76z m-224 -52 c7 -34 21 -83 30 -110 17 -50 13
-76 -9 -55 -7 7 -31 62 -53 121 -33 87 -39 109 -27 114 8 3 14 12 14 21 0 35
32 -30 45 -91z m-517 11 c-8 -58 -64 -253 -78 -271 -11 -14 10 158 25 202 8
25 15 53 15 63 0 10 5 18 10 18 6 0 15 11 20 25 15 39 17 30 8 -37z m240 -212
c-1 -159 -3 -198 -8 -141 -4 44 -12 94 -17 112 -14 41 -20 169 -9 180 5 5 6 2
1 -6 -6 -10 -4 -12 5 -6 8 5 11 21 7 45 -3 27 -1 37 9 37 12 0 14 -39 12 -221z
m684 -1191 c0 -5 -5 -11 -11 -13 -6 -2 -11 4 -11 13 0 9 5 15 11 13 6 -2 11
-8 11 -13z m48 -17 c0 -5 -4 -8 -10 -8 -5 0 -10 10 -10 23 0 18 2 19 10 7 5
-8 10 -18 10 -22z m40 12 c0 -11 -4 -20 -10 -20 -5 0 -10 9 -10 20 0 11 5 20
10 20 6 0 10 -9 10 -20z m37 -12 c-3 -7 -5 -2 -5 12 0 14 2 19 5 13 2 -7 2
-19 0 -25z m53 18 c0 -8 -4 -18 -10 -21 -5 -3 -10 3 -10 14 0 12 5 21 10 21 6
0 10 -6 10 -14z m44 -1 c-4 -8 -8 -15 -10 -15 -2 0 -4 7 -4 15 0 8 4 15 10 15
5 0 7 -7 4 -15z m46 -6 c0 -11 -4 -18 -10 -14 -5 3 -7 12 -3 20 7 21 13 19 13
-6z m37 -11 c-3 -7 -5 -2 -5 12 0 14 2 19 5 13 2 -7 2 -19 0 -25z m23 -68 l0
-50 -185 0 -185 0 0 50 0 50 185 0 185 0 0 -50z m-330 -90 c5 0 11 8 13 18 4
13 5 11 6 -5 1 -17 -5 -23 -19 -23 -14 0 -20 6 -19 23 1 16 2 18 6 5 2 -10 8
-18 13 -18z m37 8 c-3 -8 -6 -5 -6 6 -1 11 2 17 5 13 3 -3 4 -12 1 -19z m20
-10 c-3 -7 -5 -2 -5 12 0 14 2 19 5 13 2 -7 2 -19 0 -25z m20 0 c-3 -7 -5 -2
-5 12 0 14 2 19 5 13 2 -7 2 -19 0 -25z m20 0 c-3 -7 -5 -2 -5 12 0 14 2 19 5
13 2 -7 2 -19 0 -25z m20 0 c-3 -7 -5 -2 -5 12 0 14 2 19 5 13 2 -7 2 -19 0
-25z m59 12 c0 -11 -4 -20 -8 -20 -4 0 -8 9 -8 20 0 11 4 20 8 20 4 0 8 -9 8
-20z m24 -2 c0 -16 -3 -19 -11 -11 -6 6 -8 16 -5 22 11 17 16 13 16 -11z m30
-10 c0 -5 -4 -8 -10 -8 -5 0 -10 10 -10 23 0 18 2 19 10 7 5 -8 10 -18 10 -22z
m57 0 c-3 -7 -5 -2 -5 12 0 14 2 19 5 13 2 -7 2 -19 0 -25z m20 0 c-3 -7 -5
-2 -5 12 0 14 2 19 5 13 2 -7 2 -19 0 -25z"/>
<path d="M1796 254 c-9 -22 -7 -56 2 -50 8 5 16 66 8 66 -2 0 -7 -7 -10 -16z"/>
<path d="M1845 231 c-1 -22 3 -37 7 -35 10 7 11 74 1 74 -5 0 -8 -18 -8 -39z"/>
<path d="M1897 257 c-4 -10 -7 -31 -6 -45 l0 -27 10 25 c5 13 8 33 7 45 -3 19
-4 19 -11 2z"/>
<path d="M1933 230 c0 -25 2 -35 4 -22 2 12 2 32 0 45 -2 12 -4 2 -4 -23z"/>
<path d="M1963 235 c2 -19 7 -34 12 -33 11 3 11 14 -1 42 -6 15 -4 17 6 11 9
-5 11 -4 6 3 -14 23 -25 12 -23 -23z"/>
<path d="M2062 235 c1 -19 6 -35 10 -35 4 0 8 16 8 35 0 19 -5 35 -10 35 -6 0
-10 -16 -8 -35z"/>
<path d="M2108 228 c2 -21 5 -38 7 -38 2 0 5 17 7 38 2 22 -1 39 -7 39 -6 0
-9 -17 -7 -39z"/>
<path d="M2010 209 c0 -11 4 -18 10 -14 5 3 7 12 3 20 -7 21 -13 19 -13 -6z"/>
</g>
</svg>
